<?xml version="1.0" standalone="no"?>
<!DOCTYPE svg PUBLIC "-//W3C//DTD SVG 20010904//EN"
 "http://www.w3.org/TR/2001/REC-SVG-20010904/DTD/svg10.dtd">
<svg version="1.0" xmlns="http://www.w3.org/2000/svg"
 width="260.000000pt" height="260.000000pt" viewBox="0 0 260.000000 260.000000"
 preserveAspectRatio="xMidYMid meet">
<metadata>
Created by potrace 1.11, written by Peter Selinger 2001-2013
</metadata>
<g transform="translate(0.000000,260.000000) scale(0.100000,-0.100000)"
fill="#000000" stroke="none">
<path d="M0 1300 l0 -1300 1300 0 1300 0 0 1300 0 1300 -1300 0 -1300 0 0
-1300z m1744 846 c401 -56 599 -187 636 -420 36 -224 -99 -401 -375 -491 -82
-26 -275 -65 -329 -65 -17 0 -37 -4 -45 -9 -22 -14 4 -74 54 -120 l43 -40 69
6 c85 7 306 -12 386 -33 83 -21 127 -45 170 -93 40 -44 52 -88 44 -158 -11
-104 -115 -175 -299 -204 -40 -7 -74 -13 -76 -15 -2 -1 3 -12 10 -24 20 -32
74 -62 157 -86 90 -26 104 -44 34 -44 -104 0 -251 54 -325 118 -31 27 -40 29
-154 35 -144 8 -245 28 -319 63 -60 28 -111 81 -120 126 -5 21 -11 27 -23 24
-36 -11 -201 -26 -290 -26 l-94 0 -51 -45 c-96 -84 -253 -145 -417 -161 -65
-6 -72 -5 -69 11 3 12 25 23 79 36 102 26 199 76 227 118 13 19 23 37 23 41 0
4 -28 11 -62 14 -94 11 -213 43 -279 77 -122 61 -169 130 -169 247 0 116 54
195 172 253 l47 22 -37 27 c-57 41 -121 115 -145 168 -18 39 -22 65 -22 162 0
108 2 119 30 173 95 189 359 299 795 331 124 9 618 -3 724 -18z"/>
<path d="M970 2120 c-411 -39 -653 -148 -719 -325 -29 -77 -29 -194 1 -272 78
-209 432 -333 953 -333 l120 0 50 -46 c92 -85 199 -149 331 -199 83 -31 103
-31 44 0 -102 53 -170 140 -170 217 l0 35 63 7 c354 38 579 135 661 285 36 67
51 161 37 237 -39 210 -225 327 -601 379 -136 19 -626 28 -770 15z m-636 -368
c2 -4 7 -24 11 -46 7 -34 5 -38 -11 -34 -21 4 -40 48 -31 72 7 17 23 21 31 8z
m77 -32 c4 -19 4 -39 -1 -44 -16 -16 -40 15 -40 51 0 47 31 42 41 -7z m90 19
c5 -8 14 -41 20 -74 l12 -60 21 74 c31 108 63 108 86 1 7 -34 16 -63 20 -65 4
-3 10 18 14 46 9 67 22 99 41 99 32 0 30 -15 -16 -193 -9 -34 -13 -38 -37 -35
-24 3 -29 10 -44 67 -9 35 -19 65 -21 68 -3 2 -10 -20 -17 -49 -17 -69 -27
-88 -49 -88 -28 0 -36 16 -59 115 -14 64 -17 94 -10 103 13 15 28 12 39 -9z
m374 8 c25 -19 10 -37 -31 -37 -27 0 -34 -4 -34 -19 0 -15 8 -21 33 -23 24 -2
32 -8 32 -23 0 -15 -8 -21 -32 -23 -25 -2 -33 -8 -33 -22 0 -14 9 -20 38 -22
29 -2 37 -7 37 -23 0 -18 -7 -20 -60 -20 l-60 0 -3 99 c-2 64 1 103 9 112 15
18 80 18 104 1z m103 -15 c4 -28 -15 -62 -34 -62 -13 0 -15 7 -9 37 4 21 9 41
12 46 9 14 28 1 31 -21z m157 14 c23 -10 37 -24 41 -41 8 -33 -10 -75 -32 -75
-13 0 -11 -6 10 -34 14 -19 26 -42 26 -50 0 -30 -38 -16 -72 26 l-33 42 -5
-39 c-4 -32 -9 -40 -25 -40 -18 0 -20 8 -23 99 -2 64 1 103 9 112 15 18 60 18
104 0z m190 1 c25 -19 10 -37 -31 -37 -27 0 -34 -4 -34 -19 0 -15 8 -21 33
-23 24 -2 32 -8 32 -23 0 -15 -8 -21 -32 -23 -25 -2 -33 -8 -33 -22 0 -14 9
-20 38 -22 29 -2 37 -7 37 -23 0 -18 -7 -20 -60 -20 l-60 0 -3 104 c-2 77 1
107 10 113 20 12 82 9 103 -5z m260 0 c25 -19 10 -37 -31 -37 -27 0 -34 -4
-34 -19 0 -15 8 -21 33 -23 24 -2 32 -8 32 -23 0 -15 -8 -21 -32 -23 -30 -3
-32 -6 -35 -45 -2 -34 -7 -42 -23 -42 -19 0 -20 8 -23 104 -2 77 1 107 10 113
20 12 82 9 103 -5z m103 1 c13 -13 17 -173 6 -202 -9 -24 -41 -19 -48 7 -10
36 -7 167 4 188 12 22 21 24 38 7z m186 6 c9 -3 16 -15 16 -25 0 -15 -7 -19
-40 -19 -53 0 -52 -20 3 -45 55 -26 70 -63 41 -102 -34 -45 -113 -51 -138 -10
-15 24 8 37 47 26 62 -18 65 24 3 50 -62 27 -73 65 -31 106 24 25 65 32 99 19z
m106 -13 c5 -11 10 -31 10 -45 0 -24 3 -26 44 -26 l45 0 3 43 c2 34 7 42 23
42 19 0 20 -7 20 -110 0 -103 -1 -110 -20 -110 -16 0 -21 8 -23 43 l-3 42 -45
0 c-42 0 -44 -1 -44 -29 0 -42 -9 -61 -30 -61 -10 0 -21 7 -24 16 -11 29 -7
189 6 202 17 17 26 15 38 -7z m244 4 c9 -24 -14 -76 -33 -73 -15 4 -18 40 -6
76 6 17 32 15 39 -3z m64 -16 c3 -29 -20 -65 -37 -55 -10 6 -8 32 5 74 6 21
29 8 32 -19z"/>
<path d="M1072 1683 c4 -32 17 -38 43 -19 16 12 17 16 6 30 -7 9 -22 16 -33
16 -15 0 -19 -6 -16 -27z"/>
<path d="M380 1255 c-82 -39 -120 -72 -146 -129 -56 -120 -11 -241 115 -310
58 -31 205 -70 303 -81 36 -3 68 -12 71 -18 9 -26 -16 -80 -55 -118 l-42 -40
58 25 c65 29 106 56 156 101 35 33 36 33 170 39 307 16 473 63 555 158 42 50
43 62 7 77 -15 6 -48 25 -72 41 l-45 30 -5 -42 c-6 -46 -30 -66 -30 -24 0 21
-5 26 -24 26 -18 0 -25 -6 -28 -22 -2 -13 -10 -23 -18 -23 -12 0 -15 13 -15
60 0 47 3 60 15 60 8 0 16 -10 18 -22 3 -17 10 -23 28 -23 39 0 28 30 -29 81
l-52 46 -180 6 c-269 9 -427 33 -585 88 -47 16 -92 32 -100 34 -8 3 -40 -6
-70 -20z m930 -202 c0 -8 -8 -13 -17 -12 -36 3 -37 -2 -5 -21 52 -32 36 -85
-24 -78 -39 4 -43 28 -5 28 39 0 40 14 1 30 -35 15 -39 42 -9 63 24 17 59 11
59 -10z m-997 -2 c5 -22 -1 -33 -14 -25 -12 7 -12 44 0 44 5 0 11 -9 14 -19z
m40 0 c5 -22 -1 -33 -14 -25 -12 7 -12 44 0 44 5 0 11 -9 14 -19z m60 2 c18
-17 19 -17 28 0 10 17 39 24 39 10 0 -5 -9 -21 -20 -38 -11 -16 -20 -43 -20
-58 0 -42 -24 -28 -31 17 -3 20 -11 42 -18 49 -12 12 -15 37 -4 37 3 0 15 -8
26 -17z m171 1 c21 -20 20 -73 -1 -96 -16 -18 -58 -24 -80 -10 -24 15 -32 56
-17 90 11 27 18 32 48 32 19 0 42 -7 50 -16z m68 -31 c3 -40 6 -48 23 -48 17
0 20 8 23 48 2 33 7 47 18 47 20 0 19 -93 -2 -114 -18 -19 -65 -21 -82 -4 -18
18 -16 118 2 118 11 0 16 -14 18 -47z m128 28 c0 -20 -13 -35 -23 -25 -7 8 4
44 14 44 5 0 9 -9 9 -19z m114 -3 c8 -13 8 -23 -2 -38 -10 -16 -10 -24 0 -40
19 -29 1 -36 -27 -10 l-25 23 0 -21 c0 -13 -6 -22 -15 -22 -12 0 -15 14 -15
66 l0 65 36 -3 c22 -2 42 -10 48 -20z m96 11 c0 -6 -9 -13 -20 -16 -11 -3 -20
-9 -20 -14 0 -5 9 -9 20 -9 11 0 20 -5 20 -11 0 -6 -9 -13 -20 -16 -11 -3 -20
-9 -20 -14 0 -5 9 -9 20 -9 11 0 20 -7 20 -15 0 -10 -11 -15 -35 -15 l-35 0 0
65 0 65 35 0 c19 0 35 -5 35 -11z m150 0 c0 -6 -9 -13 -20 -16 -11 -3 -20 -9
-20 -14 0 -5 9 -9 20 -9 26 0 26 -20 1 -27 -11 -3 -21 -14 -23 -26 -2 -11 -9
-22 -15 -25 -10 -3 -13 14 -13 62 l0 66 35 0 c19 0 35 -5 35 -11z m60 -54 c0
-51 -3 -65 -15 -65 -12 0 -15 14 -15 65 0 51 3 65 15 65 12 0 15 -14 15 -65z"/>
<path d="M520 1036 c-6 -8 -10 -25 -8 -38 4 -33 52 -33 56 0 3 22 -13 52 -28
52 -4 0 -13 -7 -20 -14z"/>
<path d="M840 1024 c0 -9 5 -14 12 -12 18 6 21 28 4 28 -9 0 -16 -7 -16 -16z"/>
<path d="M1790 973 c0 -12 112 -53 225 -83 69 -18 100 -30 100 -40 0 -41 -303
8 -467 75 -13 5 -18 2 -18 -10 0 -9 -25 -41 -55 -71 -30 -31 -55 -62 -55 -70
0 -8 -4 -14 -10 -14 -5 0 -10 6 -10 13 0 8 -3 9 -8 1 -4 -6 -20 -14 -37 -17
-16 -3 -52 -11 -78 -18 -45 -12 -48 -15 -42 -38 23 -95 172 -154 422 -167 111
-7 120 -9 151 -36 18 -15 56 -40 84 -54 l52 -26 -28 32 c-17 21 -26 42 -24 58
3 25 8 27 88 38 193 28 290 96 290 204 0 115 -88 183 -270 208 -107 15 -310
25 -310 15z m258 -191 c-34 -4 -36 -14 -5 -27 13 -6 23 -21 25 -37 3 -22 -2
-29 -22 -34 -29 -7 -56 0 -56 16 0 5 11 10 25 10 14 0 25 4 25 8 0 5 -11 14
-25 20 -25 12 -31 28 -17 48 12 18 36 22 57 10 19 -10 18 -11 -7 -14z m-476
-35 c-1 -67 -1 -67 -12 -67 -6 0 -10 27 -10 61 0 41 4 59 11 57 7 -2 12 -24
11 -51z m58 33 c0 -11 -6 -20 -14 -20 -9 0 -12 7 -9 20 3 11 9 20 14 20 5 0 9
-9 9 -20z m67 -10 c3 -16 9 -30 13 -30 4 0 10 14 14 30 7 35 33 40 41 8 10
-44 10 -87 0 -89 -5 -2 -13 10 -16 27 -6 30 -10 26 -25 -24 -7 -23 -28 -7 -38
29 l-10 34 -5 -33 c-7 -39 -27 -39 -24 1 4 76 37 108 50 47z m213 21 c0 -5
-10 -12 -22 -15 l-23 -7 23 -9 c27 -12 29 -30 2 -30 -15 0 -20 -7 -20 -26 0
-16 -5 -24 -12 -22 -13 5 -23 80 -14 104 6 15 66 20 66 5z m50 -51 c0 -33 -4
-60 -10 -60 -6 0 -10 27 -10 60 0 33 4 60 10 60 6 0 10 -27 10 -60z m157 40
c3 -11 14 -20 24 -20 12 0 19 7 19 20 0 11 7 20 15 20 13 0 15 -11 13 -55 -3
-54 -20 -76 -26 -35 -5 28 -40 27 -44 -2 -2 -12 -9 -23 -15 -26 -10 -3 -13 13
-13 57 0 60 16 84 27 41z m123 13 c0 -5 -4 -15 -10 -23 -11 -18 -25 -7 -17 15
6 15 27 21 27 8z m30 -13 c0 -11 -6 -20 -14 -20 -9 0 -12 7 -9 20 3 11 9 20
14 20 5 0 9 -9 9 -20z"/>
</g>
</svg>
